<svg width="20" height="20" viewBox="0 0 20 20" fill="none" xmlns="http://www.w3.org/2000/svg">
<path d="M7.5 19.5C6.65133 19.5 5.93917 19.2122 5.3635 18.6365C4.78783 18.0608 4.5 17.3487 4.5 16.5C4.5 16.273 4.50325 16.0874 4.50975 15.9432C4.51608 15.7991 4.47825 15.6859 4.39625 15.6038C4.31408 15.5218 4.20092 15.4808 4.05675 15.4808H3.5C2.65133 15.4808 1.93917 15.1962 1.3635 14.627C0.787833 14.0577 0.5 13.3487 0.5 12.5C0.5 11.6513 0.787833 10.9392 1.3635 10.3635C1.93917 9.78783 2.65133 9.5 3.5 9.5C3.82567 9.5 4.12758 9.542 4.40575 9.626C4.68392 9.71 4.93583 9.836 5.1615 10.004C5.25133 10.0745 5.3555 10.1098 5.474 10.1098C5.59267 10.1098 5.69367 10.0681 5.777 9.98475L9.94625 5.8155C10.0296 5.73217 10.0777 5.62633 10.0905 5.498C10.1033 5.36983 10.0745 5.25767 10.004 5.1615C9.84233 4.9295 9.71792 4.676 9.63075 4.401C9.54358 4.126 9.5 3.82567 9.5 3.5C9.5 2.65133 9.78783 1.93917 10.3635 1.3635C10.9392 0.787833 11.6513 0.5 12.5 0.5C13.3487 0.5 14.0608 0.787833 14.6365 1.3635C15.2122 1.93917 15.5 2.65133 15.5 3.5C15.5 3.727 15.4967 3.91258 15.4902 4.05675C15.4839 4.20092 15.5218 4.31408 15.6038 4.39625C15.6859 4.47825 15.7991 4.51608 15.9432 4.50975C16.0874 4.50325 16.273 4.5 16.5 4.5C17.3487 4.5 18.0608 4.78783 18.6365 5.3635C19.2122 5.93917 19.5 6.65133 19.5 7.5C19.5 8.34867 19.2122 9.06083 18.6365 9.6365C18.0608 10.2122 17.3487 10.5 16.5 10.5C16.1743 10.5 15.874 10.4564 15.599 10.3693C15.324 10.2821 15.0705 10.1577 14.8385 9.996C14.7423 9.932 14.6333 9.90483 14.5115 9.9145C14.3897 9.924 14.2871 9.97042 14.2038 10.0538L10.0538 14.2038C9.97042 14.2871 9.92233 14.3848 9.9095 14.497C9.89667 14.6093 9.91917 14.7168 9.977 14.8193C10.132 15.0513 10.2579 15.308 10.3548 15.5895C10.4516 15.8708 10.5 16.1743 10.5 16.5C10.5 17.3487 10.2122 18.0608 9.6365 18.6365C9.06083 19.2122 8.34867 19.5 7.5 19.5ZM7.5 18C7.93333 18 8.29167 17.8583 8.575 17.575C8.85833 17.2917 9 16.9333 9 16.5C9 16.35 8.97917 16.2042 8.9375 16.0625C8.89583 15.9208 8.83333 15.7833 8.75 15.65C8.4795 15.2563 8.366 14.8288 8.4095 14.3673C8.45317 13.9058 8.65 13.5 9 13.15L13.15 9C13.5 8.65 13.9058 8.45483 14.3673 8.4145C14.8288 8.374 15.2563 8.48583 15.65 8.75C15.7833 8.83333 15.9208 8.89583 16.0625 8.9375C16.2042 8.97917 16.35 9 16.5 9C16.9333 9 17.2917 8.85833 17.575 8.575C17.8583 8.29167 18 7.93333 18 7.5C18 7.06667 17.8583 6.70833 17.575 6.425C17.2917 6.14167 16.9333 6 16.5 6C15.968 6 15.5677 5.966 15.299 5.898C15.0305 5.83017 14.7808 5.68083 14.55 5.45C14.3192 5.21917 14.1698 4.9695 14.102 4.701C14.034 4.43233 14 4.032 14 3.5C14 3.06667 13.8583 2.70833 13.575 2.425C13.2917 2.14167 12.9333 2 12.5 2C12.0667 2 11.7083 2.14167 11.425 2.425C11.1417 2.70833 11 3.06667 11 3.5C11 3.6705 11.0183 3.8215 11.0548 3.953C11.0913 4.08433 11.1563 4.21667 11.25 4.35C11.5205 4.74367 11.634 5.17125 11.5905 5.63275C11.5468 6.09425 11.35 6.5 11 6.85L6.85 11C6.5 11.35 6.09425 11.5452 5.63275 11.5855C5.17125 11.626 4.74367 11.5142 4.35 11.25C4.21667 11.1667 4.07917 11.1042 3.9375 11.0625C3.79583 11.0208 3.65 11 3.5 11C3.06667 11 2.70833 11.1417 2.425 11.425C2.14167 11.7083 2 12.0667 2 12.5C2 12.9333 2.14167 13.2885 2.425 13.5655C2.70833 13.8423 3.06667 13.9808 3.5 13.9808C4.032 13.9808 4.43233 14.0179 4.701 14.0922C4.9695 14.1666 5.21917 14.3192 5.45 14.55C5.68083 14.7808 5.83017 15.0337 5.898 15.3087C5.966 15.5837 6 15.9873 6 16.5193C6 16.9526 6.14167 17.3077 6.425 17.5845C6.70833 17.8615 7.06667 18 7.5 18Z" fill="white"/>
</svg>
