<svg width="22" height="22" viewBox="0 0 22 22" fill="none" xmlns="http://www.w3.org/2000/svg">
<path fill-rule="evenodd" clip-rule="evenodd" d="M3.64834 0.064778C1.94787 0.428054 0.564397 1.82515 0.139022 3.60865C-0.253075 5.25253 0.197278 6.99381 1.32512 8.1951C1.89675 8.80396 2.60438 9.23135 3.46218 9.48573C3.78166 9.58047 3.90122 9.58643 5.80874 9.60214L7.81867 9.61871V11.5618V13.5048L7.61446 13.3379C6.66319 12.5605 5.26724 12.7931 4.63533 13.8345C4.23997 14.4861 4.2453 15.2991 4.64926 15.949C4.74505 16.1031 5.25095 16.5868 6.29242 17.52L7.79718 18.8683L7.81867 20.2134C7.83909 21.4902 7.84477 21.565 7.93067 21.6876C7.98041 21.7587 8.08682 21.858 8.16713 21.9084C8.3103 21.9983 8.3904 22 12.333 22C16.2755 22 16.3556 21.9983 16.4988 21.9084C16.5791 21.858 16.6855 21.7587 16.7352 21.6876C16.8254 21.5588 16.8258 21.5432 16.8385 17.5204C16.8477 14.6368 16.8373 13.4045 16.8023 13.2096C16.7103 12.6965 16.4029 12.1914 16.0055 11.9002C15.6423 11.634 15.4682 11.5938 13.6326 11.3521C12.6695 11.2252 11.838 11.1114 11.7848 11.099C11.6894 11.0769 11.6881 11.0665 11.6881 10.3467V9.61679L14.9448 9.60209L18.2015 9.58744L18.5658 9.47987C20.7206 8.84376 22.1164 6.82731 21.9924 4.53001C21.9267 3.31466 21.4769 2.25694 20.6574 1.39081C19.9727 0.667185 19.2386 0.247034 18.343 0.0660602C18.0431 0.00543021 17.0892 -0.00299573 10.9632 0.000759293C5.36467 0.00419377 3.8707 0.0172448 3.64834 0.064778ZM18.2757 1.45863C19.3959 1.76374 20.3058 2.72641 20.6161 3.93465C20.7345 4.39547 20.7233 5.27401 20.5935 5.72058C20.2252 6.98758 19.2959 7.90935 18.128 8.1663C17.8432 8.22899 17.3681 8.2392 14.7424 8.2392H11.6881V7.14639C11.6881 6.54541 11.6686 5.94263 11.6448 5.80695C11.5373 5.193 11.1271 4.63762 10.5717 4.35389C10.2919 4.21088 10.2005 4.18752 9.85779 4.17159C8.88692 4.12634 8.12496 4.71625 7.88458 5.69929C7.83394 5.90636 7.81867 6.23182 7.81867 7.10399V8.2392H6.01115C4.52561 8.2392 4.14461 8.22619 3.87233 8.1663C3.21381 8.02145 2.65206 7.68327 2.17488 7.14452C1.82784 6.75262 1.61713 6.37579 1.44404 5.83731C1.32254 5.45929 1.31067 5.37068 1.30899 4.82762C1.30689 4.16142 1.36549 3.86084 1.6035 3.31645C1.98846 2.43589 2.80769 1.71186 3.70122 1.46252C4.00221 1.37853 4.27187 1.37519 10.9825 1.37276C17.7303 1.37034 17.9616 1.37304 18.2757 1.45863ZM17.1697 2.79661C17.1224 2.82394 16.5856 3.37433 15.9768 4.0196L14.87 5.19286L14.4076 4.70613C14.1533 4.43842 13.9029 4.19654 13.8513 4.16861C13.7023 4.08802 13.4017 4.10816 13.2462 4.20918C12.9789 4.38269 12.8716 4.70938 12.98 5.01926C13.0315 5.16685 14.4016 6.6548 14.5772 6.75404C14.726 6.83807 15.0128 6.83816 15.1619 6.75418C15.2257 6.71823 15.9 6.02272 16.6602 5.20866C18.1226 3.64268 18.1374 3.62253 18.0755 3.27171C18.0427 3.08542 17.9123 2.90211 17.7484 2.81181C17.6052 2.73295 17.2938 2.72476 17.1697 2.79661ZM10.0842 5.62698C10.3924 5.82714 10.3744 5.63596 10.3983 8.95503C10.4195 11.9019 10.421 11.9435 10.5103 12.0711C10.6971 12.3379 10.7346 12.3467 13.0095 12.6513C15.3938 12.9705 15.3515 12.9591 15.488 13.3225C15.5485 13.4836 15.5574 13.7894 15.5574 15.7044V17.9015H12.1423H8.72707L7.2733 16.6031C6.47372 15.8889 5.7848 15.263 5.7424 15.2121C5.46738 14.8818 5.73243 14.3394 6.20824 14.2588C6.52978 14.2044 6.68133 14.289 7.36819 14.9064C8.15901 15.6173 8.21748 15.6573 8.46796 15.6575C8.71018 15.6577 8.92605 15.5175 9.03314 15.2904C9.10322 15.1419 9.10834 14.8222 9.10847 10.5975C9.1086 6.3729 9.11371 6.05318 9.18379 5.90467C9.34506 5.56278 9.7792 5.42888 10.0842 5.62698ZM15.5574 19.9622V20.6491H12.333H9.10847V19.9622V19.2753H12.333H15.5574V19.9622Z" fill="white"/>
</svg>
