<svg width="17" height="18" viewBox="0 0 17 18" fill="none" xmlns="http://www.w3.org/2000/svg">
<path d="M9.17105 8.30781V4.77696C9.17105 4.58683 9.10671 4.42741 8.97801 4.29872C8.84932 4.17018 8.68991 4.10591 8.49978 4.10591C8.3095 4.10591 8.15016 4.17018 8.02176 4.29872C7.89322 4.42741 7.82895 4.58683 7.82895 4.77696V8.51427C7.82895 8.61955 7.84848 8.72156 7.88755 8.82027C7.92647 8.91899 7.98784 9.01026 8.07165 9.09406L11.1361 12.1585C11.2599 12.2825 11.4156 12.3458 11.6032 12.3487C11.7908 12.3515 11.9494 12.2881 12.0789 12.1585C12.2085 12.0289 12.2733 11.8718 12.2733 11.687C12.2733 11.5024 12.2085 11.3453 12.0789 11.2157L9.17105 8.30781ZM8.50157 17.0796C7.32588 17.0796 6.22081 16.8565 5.18634 16.4103C4.15188 15.9642 3.25207 15.3586 2.48692 14.5938C1.72177 13.8289 1.11596 12.9295 0.669487 11.8955C0.223162 10.8615 0 9.75669 0 8.58116C0 7.40547 0.223088 6.3004 0.669263 5.26593C1.11544 4.23147 1.72095 3.33166 2.4858 2.56651C3.25065 1.80136 4.15009 1.19555 5.18411 0.749077C6.21812 0.302752 7.3229 0.0795898 8.49843 0.0795898C9.67412 0.0795898 10.7792 0.302677 11.8137 0.748853C12.8481 1.19503 13.7479 1.80054 14.5131 2.56539C15.2782 3.33024 15.884 4.22968 16.3305 5.2637C16.7768 6.29771 17 7.40249 17 8.57802C17 9.75371 16.7769 10.8588 16.3307 11.8932C15.8846 12.9277 15.279 13.8275 14.5142 14.5927C13.7493 15.3578 12.8499 15.9636 11.8159 16.4101C10.7819 16.8564 9.6771 17.0796 8.50157 17.0796ZM8.5 15.7375C10.4833 15.7375 12.1721 15.0403 13.5664 13.646C14.9607 12.2517 15.6579 10.5629 15.6579 8.57959C15.6579 6.59626 14.9607 4.90744 13.5664 3.51314C12.1721 2.11884 10.4833 1.4217 8.5 1.4217C6.51667 1.4217 4.82785 2.11884 3.43355 3.51314C2.03925 4.90744 1.34211 6.59626 1.34211 8.57959C1.34211 10.5629 2.03925 12.2517 3.43355 13.646C4.82785 15.0403 6.51667 15.7375 8.5 15.7375Z" fill="#08138C"/>
</svg>
