<svg width="22" height="16" viewBox="0 0 22 16" fill="none" xmlns="http://www.w3.org/2000/svg">
<path d="M0.79834 13.0845C0.79834 12.5692 0.93134 12.1093 1.19734 11.7048C1.46334 11.3003 1.81859 10.9856 2.26309 10.7608C3.21342 10.2959 4.16901 9.93751 5.12984 9.68551C6.09084 9.43368 7.14692 9.30776 8.29809 9.30776C9.44942 9.30776 10.5055 9.43368 11.4663 9.68551C12.4273 9.93751 13.383 10.2959 14.3333 10.7608C14.7778 10.9856 15.1331 11.3003 15.3991 11.7048C15.6651 12.1093 15.7981 12.5692 15.7981 13.0845V13.7885C15.7981 14.191 15.6503 14.5448 15.3548 14.85C15.0593 15.1552 14.7007 15.3078 14.2788 15.3078H2.31734C1.89567 15.3078 1.53709 15.16 1.24159 14.8645C0.94609 14.5688 0.79834 14.2102 0.79834 13.7885V13.0845ZM19.6828 15.3078H17.4116C17.5373 15.0783 17.6331 14.834 17.6991 14.575C17.7651 14.316 17.7981 14.0538 17.7981 13.7885V12.9615C17.7981 12.3052 17.6374 11.6796 17.3161 11.0848C16.9946 10.4901 16.5386 9.97984 15.9481 9.55401C16.6186 9.65401 17.2552 9.80876 17.8578 10.0183C18.4603 10.2279 19.0353 10.4757 19.5828 10.7615C20.0995 11.0372 20.4985 11.3621 20.7798 11.7363C21.0612 12.1103 21.2018 12.5187 21.2018 12.9615V13.7885C21.2018 14.2102 21.0541 14.5688 20.7586 14.8645C20.4631 15.16 20.1045 15.3078 19.6828 15.3078ZM8.29809 7.69226C7.33559 7.69226 6.51167 7.34959 5.82634 6.66426C5.14101 5.97876 4.79834 5.15476 4.79834 4.19226C4.79834 3.22976 5.14101 2.40584 5.82634 1.72051C6.51167 1.03501 7.33559 0.692261 8.29809 0.692261C9.26059 0.692261 10.0846 1.03501 10.7701 1.72051C11.4554 2.40584 11.7981 3.22976 11.7981 4.19226C11.7981 5.15476 11.4554 5.97876 10.7701 6.66426C10.0846 7.34959 9.26059 7.69226 8.29809 7.69226ZM16.9326 4.19226C16.9326 5.15476 16.5899 5.97876 15.9046 6.66426C15.2193 7.34959 14.3953 7.69226 13.4328 7.69226C13.32 7.69226 13.1764 7.67943 13.0021 7.65376C12.8276 7.62809 12.684 7.59993 12.5713 7.56926C12.9657 7.09509 13.2688 6.56909 13.4806 5.99126C13.6923 5.41343 13.7981 4.81343 13.7981 4.19126C13.7981 3.56893 13.6901 2.97118 13.4741 2.39801C13.2581 1.82501 12.9572 1.29751 12.5713 0.815511C12.7148 0.764177 12.8584 0.730844 13.0021 0.715511C13.1456 0.700011 13.2892 0.692261 13.4328 0.692261C14.3953 0.692261 15.2193 1.03501 15.9046 1.72051C16.5899 2.40584 16.9326 3.22976 16.9326 4.19226ZM2.29809 13.8078H14.2981V13.0845C14.2981 12.8757 14.2458 12.6898 14.1413 12.527C14.037 12.3642 13.8713 12.2218 13.6443 12.1C12.8213 11.6757 11.9739 11.3542 11.1021 11.1355C10.2303 10.917 9.29559 10.8078 8.29809 10.8078C7.30076 10.8078 6.36617 10.917 5.49434 11.1355C4.62251 11.3542 3.77509 11.6757 2.95209 12.1C2.72509 12.2218 2.55934 12.3642 2.45484 12.527C2.35034 12.6898 2.29809 12.8757 2.29809 13.0845V13.8078ZM8.29809 6.19226C8.84809 6.19226 9.31892 5.99643 9.71059 5.60476C10.1023 5.21309 10.2981 4.74226 10.2981 4.19226C10.2981 3.64226 10.1023 3.17143 9.71059 2.77976C9.31892 2.38809 8.84809 2.19226 8.29809 2.19226C7.74809 2.19226 7.27726 2.38809 6.88559 2.77976C6.49392 3.17143 6.29809 3.64226 6.29809 4.19226C6.29809 4.74226 6.49392 5.21309 6.88559 5.60476C7.27726 5.99643 7.74809 6.19226 8.29809 6.19226Z" fill="#08138C"/>
</svg>
