<svg width="17" height="22" viewBox="0 0 17 22" fill="none" xmlns="http://www.w3.org/2000/svg">
<path d="M0.939853 21.2562V10.8573H2.59842V19.6226H10.6148V14.4827L13.4322 11.697C13.988 11.1497 14.4185 10.5301 14.7239 9.83813C15.0294 9.14636 15.1822 8.41437 15.1822 7.64218C15.1822 6.88125 15.0284 6.15653 14.7209 5.46802C14.4133 4.77969 13.9873 4.16188 13.4429 3.6146L12.5498 2.70763L8.92224 6.28078H4.77583L3.31077 7.72387L2.12849 6.58655L4.09748 4.64709H8.24389L12.5498 0.405762L14.6252 2.43943C15.334 3.13774 15.8786 3.93126 16.2592 4.81999C16.6399 5.70871 16.8338 6.64945 16.8408 7.64218C16.8338 8.63492 16.6399 9.57565 16.2592 10.4644C15.8786 11.3531 15.334 12.1466 14.6252 12.8449L12.2734 15.1509V21.2562H0.939853ZM6.09854 16.3111L0.550643 10.8573C0.369307 10.6785 0.232199 10.4704 0.139319 10.2329C0.0464396 9.99569 0 9.74928 0 9.4937C0 9.23811 0.0464396 8.99624 0.139319 8.76807C0.232199 8.53971 0.369307 8.33614 0.550643 8.15734L2.68134 6.04199L5.91775 9.19201C6.41238 9.67939 6.79191 10.2369 7.05636 10.8646C7.32081 11.4922 7.45303 12.1515 7.45303 12.8428C7.45303 13.485 7.3396 14.1025 7.11275 14.6954C6.8859 15.288 6.54782 15.8266 6.09854 16.3111Z" fill="#08138C"/>
</svg>
