<svg width="21" height="20" viewBox="0 0 21 20" fill="none" xmlns="http://www.w3.org/2000/svg">
<path d="M9.73075 19.257C9.51825 19.257 9.34017 19.1851 9.1965 19.0412C9.05267 18.8974 8.98075 18.7192 8.98075 18.5067C8.98075 18.2941 9.05267 18.116 9.1965 17.9725C9.34017 17.8288 9.51825 17.757 9.73075 17.757H20.2307C20.4432 17.757 20.6213 17.8289 20.765 17.9727C20.9088 18.1166 20.9807 18.2947 20.9807 18.5072C20.9807 18.7199 20.9088 18.898 20.765 19.0415C20.6213 19.1852 20.4432 19.257 20.2307 19.257H9.73075ZM9.98075 16.5647C9.98075 15.3109 10.3849 14.2198 11.1933 13.2915C12.0016 12.3633 13.0141 11.8114 14.2307 11.6357V11.1167C14.2307 10.9102 14.3027 10.7336 14.4465 10.5867C14.5902 10.4401 14.7682 10.3667 14.9807 10.3667C15.1871 10.3667 15.3637 10.4401 15.5105 10.5867C15.6573 10.7336 15.7307 10.9102 15.7307 11.1167V11.6357C16.9371 11.8114 17.947 12.3633 18.7605 13.2915C19.574 14.2198 19.9807 15.3109 19.9807 16.5647H9.98075ZM11.8942 15.0492H18.027C17.768 14.4582 17.367 13.9756 16.824 13.6012C16.281 13.2269 15.6666 13.0397 14.9807 13.0397C14.2846 13.0397 13.6608 13.2269 13.1095 13.6012C12.5583 13.9756 12.1532 14.4582 11.8942 15.0492ZM0 8.69924V2.16099C0 1.73915 0.14775 1.38049 0.44325 1.08499C0.73875 0.789487 1.09742 0.641738 1.51925 0.641738H3.48075C3.81025 0.641738 4.12533 0.756154 4.426 0.984987C4.7265 1.21382 4.91783 1.49299 5 1.82249V2.01474L11.7808 0.0704868C11.9449 0.0269868 12.1189 0.00357021 12.3028 0.000236878C12.4868 -0.00292979 12.6608 0.0256534 12.825 0.0859867L19.271 2.09924C19.4372 2.15107 19.5682 2.24499 19.664 2.38099C19.7597 2.51715 19.8075 2.6694 19.8075 2.83774V3.00699C19.8075 3.72499 19.5447 4.33074 19.0192 4.82424C18.4936 5.3179 17.8653 5.56474 17.1345 5.56474H14.8652V6.10699C14.8652 6.49165 14.7493 6.83715 14.5173 7.14349C14.2853 7.44982 13.9872 7.67482 13.623 7.81849L7.473 10.103C7.36917 10.1363 7.26633 10.1639 7.1645 10.1857C7.0625 10.2076 6.95442 10.2185 6.84025 10.2185H1.51925C1.09742 10.2185 0.73875 10.0707 0.44325 9.77524C0.14775 9.47974 0 9.12107 0 8.69924ZM1.5 5.42999V8.71849H3.5V2.14174H1.5V5.42999ZM5 6.14174V8.71849H6.90775L12.8037 6.55499C12.9754 6.49349 13.1119 6.38965 13.2132 6.24349C13.3146 6.09732 13.3652 5.93199 13.3652 5.74749V5.56474H11.5135L9.298 6.30124C9.10183 6.36524 8.91175 6.34924 8.72775 6.25324C8.54392 6.15707 8.41992 6.00574 8.35575 5.79924C8.29158 5.59674 8.30367 5.40599 8.392 5.22699C8.48017 5.04815 8.62517 4.92674 8.827 4.86274L11.2385 4.06474H17.1345C17.323 4.06474 17.5457 4.00257 17.8027 3.87824C18.0599 3.7539 18.2013 3.5814 18.227 3.36074L12.2578 1.51074L5 3.56474V6.14174Z" fill="white"/>
</svg>
