<svg width="48" height="48" viewBox="0 0 48 48" fill="none" xmlns="http://www.w3.org/2000/svg">
<rect width="48" height="48" rx="23" fill="#08138C"/>
<path d="M18.0426 31.2882C17.2066 31.2882 16.433 31.126 15.7218 30.8016C15.0231 30.4772 14.4492 30.0093 14 29.3979L15.385 27.7322C15.7468 28.2313 16.1398 28.6056 16.5641 28.8551C17.0008 29.1047 17.4749 29.2294 17.9865 29.2294C19.3465 29.2294 20.0265 28.4247 20.0265 26.8151V20.04H15.3662V18H22.4595V26.6841C22.4595 28.2313 22.079 29.3854 21.3179 30.1465C20.5692 30.9076 19.4775 31.2882 18.0426 31.2882Z" fill="white"/>
<path d="M25.1236 31.101V18H30.8506C32.273 18 33.5207 18.2745 34.5937 18.8235C35.6668 19.3725 36.5027 20.1336 37.1016 21.1068C37.7005 22.08 38 23.2279 38 24.5505C38 25.8606 37.7005 27.0085 37.1016 27.9942C36.5027 28.9674 35.6668 29.7285 34.5937 30.2775C33.5207 30.8265 32.273 31.101 30.8506 31.101H25.1236ZM27.5566 29.0423H30.7383C31.724 29.0423 32.5724 28.8551 33.2836 28.4808C34.0073 28.1065 34.5625 27.5825 34.9493 26.9087C35.3486 26.2349 35.5482 25.4489 35.5482 24.5505C35.5482 23.6397 35.3486 22.8536 34.9493 22.1923C34.5625 21.5186 34.0073 20.9945 33.2836 20.6202C32.5724 20.2459 31.724 20.0587 30.7383 20.0587H27.5566V29.0423Z" fill="white"/>
</svg>
