<svg width="64" height="64" viewBox="0 0 64 64" fill="none" xmlns="http://www.w3.org/2000/svg">
<g filter="url(#filter0_d_44_342)">
<rect x="10" y="2" width="44" height="44" rx="8" fill="white"/>
<rect x="10.25" y="2.25" width="43.5" height="43.5" rx="7.75" stroke="#EBEBEB" stroke-width="0.5"/>
<path d="M35.3734 26.085V21.915C35.3734 21.7419 35.2967 21.6234 35.1434 21.5593C34.9901 21.4952 34.852 21.5245 34.7292 21.6475L32.9038 23.4727C32.7533 23.6234 32.678 23.7991 32.678 24C32.678 24.2008 32.7533 24.3766 32.9038 24.5273L34.7292 26.3525C34.852 26.4754 34.9901 26.5048 35.1434 26.4406C35.2967 26.3766 35.3734 26.258 35.3734 26.085ZM26.4232 31.0833C26.0077 31.0833 25.6527 30.9361 25.3582 30.6418C25.0639 30.3474 24.9167 29.9924 24.9167 29.5768V18.4231C24.9167 18.0075 25.0639 17.6525 25.3582 17.3581C25.6527 17.0638 26.0077 16.9166 26.4232 16.9166H37.577C37.9925 16.9166 38.3475 17.0638 38.642 17.3581C38.9363 17.6525 39.0834 18.0075 39.0834 18.4231V29.5768C39.0834 29.9924 38.9363 30.3474 38.642 30.6418C38.3475 30.9361 37.9925 31.0833 37.577 31.0833H26.4232ZM28.6667 29.8333V18.1666H26.4232C26.359 18.1666 26.3003 18.1934 26.247 18.2468C26.1935 18.3002 26.1667 18.3589 26.1667 18.4231V29.5768C26.1667 29.641 26.1935 29.6998 26.247 29.7531C26.3003 29.8066 26.359 29.8333 26.4232 29.8333H28.6667ZM29.9167 29.8333H37.577C37.6411 29.8333 37.6999 29.8066 37.7532 29.7531C37.8067 29.6998 37.8334 29.641 37.8334 29.5768V18.4231C37.8334 18.3589 37.8067 18.3002 37.7532 18.2468C37.6999 18.1934 37.6411 18.1666 37.577 18.1666H29.9167V29.8333Z" fill="#08138C"/>
</g>
<defs>
<filter id="filter0_d_44_342" x="0" y="0" width="64" height="64" filterUnits="userSpaceOnUse" color-interpolation-filters="sRGB">
<feFlood flood-opacity="0" result="BackgroundImageFix"/>
<feColorMatrix in="SourceAlpha" type="matrix" values="0 0 0 0 0 0 0 0 0 0 0 0 0 0 0 0 0 0 127 0" result="hardAlpha"/>
<feOffset dy="8"/>
<feGaussianBlur stdDeviation="5"/>
<feComposite in2="hardAlpha" operator="out"/>
<feColorMatrix type="matrix" values="0 0 0 0 0.22832 0 0 0 0 0.22832 0 0 0 0 0.22832 0 0 0 0.1 0"/>
<feBlend mode="normal" in2="BackgroundImageFix" result="effect1_dropShadow_44_342"/>
<feBlend mode="normal" in="SourceGraphic" in2="effect1_dropShadow_44_342" result="shape"/>
</filter>
</defs>
</svg>
