<svg width="42" height="54" viewBox="0 0 42 54" fill="none" xmlns="http://www.w3.org/2000/svg">
<mask id="mask0_44_290" style="mask-type:luminance" maskUnits="userSpaceOnUse" x="0" y="-1" width="42" height="55">
<path d="M13.6677 7.97607C13.1319 7.97607 12.6968 8.41468 12.6968 8.95476C12.6968 9.49484 13.1319 9.93345 13.6677 9.93345C14.2035 9.93345 14.6386 9.49484 14.6386 8.95476C14.6386 8.41468 14.2035 7.97607 13.6677 7.97607ZM15.9363 13.2535C15.3571 13.2535 14.8879 13.7265 14.8879 14.3103C14.8879 14.894 15.3571 15.367 15.9363 15.367C16.5154 15.367 16.9846 14.894 16.9846 14.3103C16.9846 13.7265 16.5154 13.2535 15.9363 13.2535ZM37.8059 30.294H37.8136C40.237 32.7369 41.7375 36.1131 41.7375 39.8406C41.7375 43.568 40.237 46.9349 37.8136 49.3793L37.8059 49.3871C35.3809 51.83 32.0361 53.3425 28.3429 53.3425H6.52755V24.4968C8.0265 25.0462 9.45113 25.3256 10.5165 25.5847V49.3216H28.346C30.9475 49.3216 33.2997 48.2617 35.0015 46.5494C36.7002 44.8339 37.7517 42.4629 37.7517 39.8406C37.7517 37.2182 36.6987 34.8503 34.9984 33.1349L35.0031 33.1318C33.3012 31.4194 30.9475 30.3596 28.3476 30.3596H28.2624C24.6962 30.3596 23.606 30.3518 20.029 30.3783C29.1853 26.3933 32.9373 12.6885 21.0123 6.61026C20.8063 6.50412 20.3944 6.4651 20.1947 6.58841C19.9949 6.71172 19.9159 6.96303 19.9159 7.19873V9.28879C19.9159 9.61815 19.6821 9.89287 19.3585 9.94126C15.9827 10.4564 13.2976 11.6427 12.1564 14.5741C11.393 15.5309 8.39969 16.2583 8.40589 16.5252C8.47402 24.5967 13.3689 19.3723 13.406 27.0317C11.9272 21.6856 0.434168 26.1389 0.000586222 11.8503C-0.0226414 11.0979 0.647862 10.5157 1.39269 10.4579C6.81712 10.038 7.74003 9.7836 8.76824 9.704C9.00051 9.68683 9.19562 9.57444 9.33034 9.38089C11.5509 6.20599 14.5411 4.50927 18.2947 4.29543C18.6415 4.27514 18.9125 3.98637 18.9125 3.63516V0.647571C18.9125 0.40563 19.0302 0.198028 19.2377 0.0762765C19.4436 -0.0454748 19.6651 -0.00489106 19.8912 0.0731547C33.8541 4.8636 37.2453 20.5898 27.5532 26.412C30.0726 26.412 34.1096 26.5681 37.8059 30.294Z" fill="white"/>
</mask>
<g mask="url(#mask0_44_290)">
<path d="M41.7375 -0.0452881H-0.0227051V53.3411H41.7375V-0.0452881Z" fill="url(#paint0_linear_44_290)"/>
</g>
<defs>
<linearGradient id="paint0_linear_44_290" x1="8.09767" y1="48.4992" x2="33.9066" y2="5.00329" gradientUnits="userSpaceOnUse">
<stop stop-color="#2B307F"/>
<stop offset="1" stop-color="#44B3E7"/>
</linearGradient>
</defs>
</svg>
