<svg width="48" height="48" viewBox="0 0 48 48" fill="none" xmlns="http://www.w3.org/2000/svg">
<rect opacity="0.05" width="48" height="48" rx="23" fill="#08138C"/>
<path d="M17.25 30.8845C17.0375 30.8845 16.8594 30.8127 16.7158 30.669C16.5719 30.5252 16.5 30.3469 16.5 30.1343C16.5 29.9218 16.5719 29.7437 16.7158 29.6C16.8594 29.4565 17.0375 29.3848 17.25 29.3848H18.3077V21.923C18.3077 20.5782 18.7228 19.3891 19.553 18.3557C20.383 17.3224 21.4487 16.6615 22.75 16.373V15.75C22.75 15.4028 22.8714 15.1077 23.1143 14.8645C23.3571 14.6215 23.6519 14.5 23.9988 14.5C24.3458 14.5 24.641 14.6215 24.8845 14.8645C25.1282 15.1077 25.25 15.4028 25.25 15.75V16.373C26.5513 16.6615 27.617 17.3224 28.447 18.3557C29.2772 19.3891 29.6923 20.5782 29.6923 21.923V29.3848H30.75C30.9625 29.3848 31.1406 29.4566 31.2843 29.6003C31.4281 29.7441 31.5 29.9223 31.5 30.135C31.5 30.3475 31.4281 30.5256 31.2843 30.6693C31.1406 30.8128 30.9625 30.8845 30.75 30.8845H17.25ZM23.9982 33.6923C23.5007 33.6923 23.0754 33.5153 22.7223 33.1613C22.3689 32.8073 22.1923 32.3817 22.1923 31.8845H25.8078C25.8078 32.3833 25.6306 32.8093 25.2762 33.1625C24.9219 33.5157 24.4959 33.6923 23.9982 33.6923ZM19.8077 29.3848H28.1923V21.923C28.1923 20.7653 27.783 19.7772 26.9645 18.9587C26.1458 18.1401 25.1577 17.7307 24 17.7307C22.8423 17.7307 21.8542 18.1401 21.0355 18.9587C20.217 19.7772 19.8077 20.7653 19.8077 21.923V29.3848Z" fill="#08138C"/>
</svg>
