<svg width="18" height="18" viewBox="0 0 18 18" fill="none" xmlns="http://www.w3.org/2000/svg">
<path d="M1.5 17.5C1.2875 17.5 1.10942 17.4281 0.96575 17.2843C0.821917 17.1404 0.75 16.9623 0.75 16.7497C0.75 16.5371 0.821917 16.359 0.96575 16.2155C1.10942 16.0718 1.2875 16 1.5 16H2.75V1.404C2.75 1.14783 2.83625 0.933167 3.00875 0.760001C3.18125 0.586667 3.395 0.5 3.65 0.5H10.8503C11.1053 0.5 11.3189 0.586667 11.4913 0.760001C11.6638 0.933167 11.75 1.14783 11.75 1.404V1.5H14.346C14.6022 1.5 14.8168 1.58667 14.99 1.76C15.1633 1.93317 15.25 2.14783 15.25 2.404V16H16.5C16.7125 16 16.8906 16.0719 17.0343 16.2158C17.1781 16.3596 17.25 16.5378 17.25 16.7503C17.25 16.9629 17.1781 17.141 17.0343 17.2845C16.8906 17.4282 16.7125 17.5 16.5 17.5H14.6585C14.3977 17.5 14.1811 17.4133 14.0087 17.24C13.8362 17.0668 13.75 16.8522 13.75 16.596V3H11.75V16.596C11.75 16.8522 11.6634 17.0668 11.4902 17.24C11.3169 17.4133 11.1022 17.5 10.8462 17.5H1.5ZM9.13475 9C9.13475 8.75517 9.0485 8.5465 8.876 8.374C8.7035 8.20167 8.49483 8.1155 8.25 8.1155C8.00517 8.1155 7.7965 8.20167 7.624 8.374C7.45167 8.5465 7.3655 8.75517 7.3655 9C7.3655 9.24483 7.45167 9.4535 7.624 9.626C7.7965 9.79833 8.00517 9.8845 8.25 9.8845C8.49483 9.8845 8.7035 9.79833 8.876 9.626C9.0485 9.4535 9.13475 9.24483 9.13475 9ZM4.25 16H10.25V2H4.25V16Z" fill="white"/>
</svg>
