<svg width="23" height="19" viewBox="0 0 23 19" fill="none" xmlns="http://www.w3.org/2000/svg">
<path d="M11.5 2.779C12.1885 1.893 13.0029 1.20833 13.9432 0.725C14.8836 0.241667 15.8692 0 16.9 0C18.5945 0 20.0348 0.593083 21.2208 1.77925C22.4069 2.96525 23 4.4055 23 6.1C23 6.52317 22.9535 6.94083 22.8605 7.353C22.7675 7.76517 22.6409 8.16608 22.4807 8.55575C22.4102 8.76858 22.2839 8.93267 22.1018 9.048C21.9198 9.1635 21.7234 9.1885 21.5128 9.123C21.3144 9.0705 21.1637 8.95642 21.0605 8.78075C20.9573 8.60508 20.941 8.41925 21.0115 8.22325C21.1615 7.88725 21.2804 7.54233 21.3682 7.1885C21.4561 6.83467 21.5 6.47183 21.5 6.1C21.5 4.81667 21.0542 3.72917 20.1625 2.8375C19.2708 1.94583 18.1833 1.5 16.9 1.5C15.9638 1.5 15.1128 1.76375 14.347 2.29125C13.581 2.81892 12.8916 3.44233 12.2788 4.1615C12.0711 4.41283 11.8115 4.5385 11.5 4.5385C11.1885 4.5385 10.9289 4.41283 10.7213 4.1615C10.1186 3.44233 9.43108 2.81892 8.65875 2.29125C7.88642 1.76375 7.0335 1.5 6.1 1.5C4.81667 1.5 3.72917 1.94583 2.8375 2.8375C1.94583 3.72917 1.5 4.81667 1.5 6.1C1.5 6.47017 1.54233 6.83417 1.627 7.192C1.7115 7.55 1.82875 7.89692 1.97875 8.23275C2.03275 8.41858 2.01133 8.59675 1.9145 8.76725C1.81767 8.93775 1.67583 9.05067 1.489 9.106C1.27717 9.17517 1.08183 9.15558 0.903 9.04725C0.724167 8.93892 0.59625 8.77833 0.51925 8.5655C0.359083 8.17567 0.2325 7.77367 0.1395 7.3595C0.0465 6.94533 0 6.5255 0 6.1C0 4.4055 0.593083 2.96525 1.77925 1.77925C2.96525 0.593083 4.4055 0 6.1 0C7.13083 0 8.11642 0.241667 9.05675 0.725C9.99708 1.20833 10.8115 1.893 11.5 2.779ZM0.8655 18.0193C0.620333 18.0193 0.41475 17.9363 0.24875 17.7705C0.0829167 17.6045 0 17.3989 0 17.1538V16.8C0 16.3218 0.1805 15.9023 0.5415 15.5413C0.902333 15.1804 1.39367 14.9115 2.0155 14.7345C2.4295 14.6077 2.8035 14.5375 3.1375 14.524C3.4715 14.5105 3.83208 14.5204 4.21925 14.5538C4.37242 14.5688 4.4835 14.6395 4.5525 14.766C4.62133 14.8925 4.62883 15.0243 4.575 15.1615C4.484 15.3897 4.41667 15.6237 4.373 15.8635C4.3295 16.1032 4.30775 16.3506 4.30775 16.6057V17.1152C4.30775 17.3714 4.22108 17.5861 4.04775 17.7593C3.87458 17.9326 3.66 18.0193 3.404 18.0193H0.8655ZM6 17.1152V16.6443C6 15.6891 6.50825 14.9231 7.52475 14.3462C8.54125 13.7692 9.86725 13.4807 11.5027 13.4807C13.1534 13.4807 14.4823 13.7692 15.4895 14.3462C16.4965 14.9231 17 15.6891 17 16.6443V17.1152C17 17.3714 16.9133 17.5861 16.74 17.7593C16.5668 17.9326 16.3522 18.0193 16.096 18.0193H6.90775C6.64742 18.0193 6.43108 17.9326 6.25875 17.7593C6.08625 17.5861 6 17.3714 6 17.1152ZM19.596 18.0193C19.34 18.0193 19.1254 17.9326 18.9523 17.7593C18.7789 17.5861 18.6923 17.3714 18.6923 17.1152V16.6057C18.6923 16.3506 18.6705 16.1032 18.627 15.8635C18.5833 15.6237 18.516 15.3897 18.425 15.1615C18.3712 15.0243 18.3787 14.8925 18.4475 14.766C18.5165 14.6395 18.6276 14.5688 18.7807 14.5538C19.1679 14.5204 19.5285 14.5105 19.8625 14.524C20.1965 14.5375 20.5705 14.6077 20.9845 14.7345C21.6063 14.9115 22.0977 15.1804 22.4585 15.5413C22.8195 15.9023 23 16.3218 23 16.8V17.1538C23 17.3989 22.9171 17.6045 22.7513 17.7705C22.5853 17.9363 22.3797 18.0193 22.1345 18.0193H19.596ZM11.4988 14.9807C10.4598 14.9807 9.56692 15.1186 8.82025 15.3943C8.07342 15.6699 7.659 16.0097 7.577 16.4135V16.5193H15.4385V16.4135C15.3462 16.0097 14.9308 15.6699 14.1923 15.3943C13.4539 15.1186 12.5561 14.9807 11.4988 14.9807ZM3.75975 13.548C3.28908 13.548 2.88617 13.3804 2.551 13.0453C2.21567 12.7101 2.048 12.3072 2.048 11.8365C2.048 11.3597 2.21567 10.9568 2.551 10.628C2.88617 10.2992 3.28908 10.1348 3.75975 10.1348C4.23658 10.1348 4.641 10.2992 4.973 10.628C5.30517 10.9568 5.47125 11.3597 5.47125 11.8365C5.47125 12.3072 5.30517 12.7101 4.973 13.0453C4.641 13.3804 4.23658 13.548 3.75975 13.548ZM19.25 13.548C18.7833 13.548 18.3814 13.3804 18.0443 13.0453C17.7071 12.7101 17.5385 12.3072 17.5385 11.8365C17.5385 11.3597 17.7071 10.9568 18.0443 10.628C18.3814 10.2992 18.7839 10.1348 19.2518 10.1348C19.7339 10.1348 20.1394 10.2992 20.4682 10.628C20.7971 10.9568 20.9615 11.3597 20.9615 11.8365C20.9615 12.3072 20.7975 12.7101 20.4695 13.0453C20.1415 13.3804 19.735 13.548 19.25 13.548ZM11.5035 12.7308C10.7832 12.7308 10.1698 12.4783 9.6635 11.9735C9.15717 11.4688 8.904 10.8559 8.904 10.1348C8.904 9.39908 9.15633 8.7825 9.661 8.285C10.1658 7.78733 10.7788 7.5385 11.5 7.5385C12.2355 7.5385 12.8521 7.787 13.3497 8.284C13.8472 8.78083 14.096 9.39658 14.096 10.1313C14.096 10.8514 13.8476 11.4648 13.3508 11.9713C12.8538 12.4776 12.238 12.7308 11.5035 12.7308ZM11.5 9.0385C11.1975 9.0385 10.9392 9.14358 10.725 9.35375C10.5108 9.56375 10.4038 9.82408 10.4038 10.1348C10.4038 10.4373 10.5108 10.6956 10.725 10.9098C10.9392 11.1238 11.1991 11.2308 11.5048 11.2308C11.8106 11.2308 12.0689 11.1238 12.2798 10.9098C12.4908 10.6956 12.5962 10.4356 12.5962 10.1298C12.5962 9.82408 12.4912 9.56575 12.281 9.35475C12.0708 9.14392 11.8105 9.0385 11.5 9.0385Z" fill="white"/>
</svg>
